<svg width="36" height="46" viewBox="0 0 36 46" fill="none" xmlns="http://www.w3.org/2000/svg">
<path d="M33.9596 9.90921C29.5042 1.04395 18.7046 -2.5409 9.84225 1.91595C0.97985 6.3728 -2.45857 17.5634 1.85156 26.0411C3.88555 30.0619 12.3605 40.5258 16.0895 45.128C17.0096 46.2907 18.7531 46.2907 19.7216 45.128C23.4506 40.5258 31.8287 30.0619 34.008 26.0411C36.72 21.0998 36.6232 15.1896 33.9596 9.90921ZM17.9298 27.3975C12.748 27.3975 8.58309 23.1829 8.58309 18.0478C8.58309 12.8643 12.748 8.69811 17.9298 8.69811C23.1116 8.69811 27.2765 12.9127 27.2765 18.0478C27.3249 23.1829 23.1116 27.3975 17.9298 27.3975Z" fill="#494949"/>
</svg>
