<svg width="36" height="36" viewBox="0 0 36 36" fill="none" xmlns="http://www.w3.org/2000/svg">
<path d="M10.8947 0C4.88747 0 0 4.88747 0 10.8947V25.1053C0 31.1125 4.88747 36 10.8947 36H25.1053C31.1125 36 36 31.1125 36 25.1053V10.8947C36 4.88747 31.1125 0 25.1053 0H10.8947ZM27.4737 6.63158C28.5205 6.63158 29.3684 7.47947 29.3684 8.52632C29.3684 9.57221 28.5205 10.4211 27.4737 10.4211C26.4268 10.4211 25.5789 9.57221 25.5789 8.52632C25.5789 7.47947 26.4268 6.63158 27.4737 6.63158ZM18 8.52632C23.2238 8.52632 27.4737 12.7762 27.4737 18C27.4737 23.2238 23.2238 27.4737 18 27.4737C12.7762 27.4737 8.52632 23.2238 8.52632 18C8.52632 12.7762 12.7762 8.52632 18 8.52632ZM18 11.3684C17.1291 11.3684 16.2668 11.54 15.4622 11.8732C14.6576 12.2065 13.9266 12.695 13.3108 13.3108C12.695 13.9266 12.2065 14.6576 11.8732 15.4622C11.54 16.2668 11.3684 17.1291 11.3684 18C11.3684 18.8709 11.54 19.7332 11.8732 20.5378C12.2065 21.3424 12.695 22.0734 13.3108 22.6892C13.9266 23.305 14.6576 23.7935 15.4622 24.1268C16.2668 24.46 17.1291 24.6316 18 24.6316C18.8709 24.6316 19.7332 24.46 20.5378 24.1268C21.3424 23.7935 22.0734 23.305 22.6892 22.6892C23.305 22.0734 23.7935 21.3424 24.1268 20.5378C24.46 19.7332 24.6316 18.8709 24.6316 18C24.6316 17.1291 24.46 16.2668 24.1268 15.4622C23.7935 14.6576 23.305 13.9266 22.6892 13.3108C22.0734 12.695 21.3424 12.2065 20.5378 11.8732C19.7332 11.54 18.8709 11.3684 18 11.3684V11.3684Z" fill="#494949"/>
</svg>
